<mxfile host="65bd71144e">
    <diagram id="iG6QyBe2TL6udn1lgurI" name="Page-1">
        <mxGraphModel dx="1318" dy="916" grid="1" gridSize="10" guides="1" tooltips="1" connect="1" arrows="1" fold="1" page="1" pageScale="1" pageWidth="1600" pageHeight="900" math="0" shadow="0">
            <root>
                <mxCell id="0"/>
                <mxCell id="1" parent="0"/>
                <mxCell id="27" value="" style="rounded=1;whiteSpace=wrap;html=1;fontSize=16;fontColor=#000000;fillColor=#fa6800;strokeColor=#C73500;" vertex="1" parent="1">
                    <mxGeometry x="1280" y="370" width="150" height="90" as="geometry"/>
                </mxCell>
                <mxCell id="26" value="" style="rounded=1;whiteSpace=wrap;html=1;fontSize=16;fontColor=#000000;fillColor=#fa6800;strokeColor=#C73500;" vertex="1" parent="1">
                    <mxGeometry x="1130" y="370" width="150" height="90" as="geometry"/>
                </mxCell>
                <mxCell id="25" value="" style="rounded=1;whiteSpace=wrap;html=1;fontSize=16;fontColor=#000000;fillColor=#fa6800;strokeColor=#C73500;" vertex="1" parent="1">
                    <mxGeometry x="980" y="370" width="150" height="90" as="geometry"/>
                </mxCell>
                <mxCell id="24" value="" style="rounded=1;whiteSpace=wrap;html=1;fontSize=16;fontColor=#000000;fillColor=#fa6800;strokeColor=#C73500;" vertex="1" parent="1">
                    <mxGeometry x="830" y="370" width="150" height="90" as="geometry"/>
                </mxCell>
                <mxCell id="10" value="" style="rounded=1;whiteSpace=wrap;html=1;fontSize=16;fontColor=#000000;fillColor=#fa6800;strokeColor=#C73500;" vertex="1" parent="1">
                    <mxGeometry x="214" y="270" width="400" height="60" as="geometry"/>
                </mxCell>
                <mxCell id="2" value="&lt;font style=&quot;font-size: 16px;&quot;&gt;MAVLink Message Frame 1&lt;/font&gt;" style="rounded=1;whiteSpace=wrap;html=1;fillColor=#60a917;fontColor=#ffffff;strokeColor=#2D7600;" vertex="1" parent="1">
                    <mxGeometry x="40" y="120" width="200" height="40" as="geometry"/>
                </mxCell>
                <mxCell id="3" value="&lt;font style=&quot;font-size: 16px;&quot;&gt;MAVLink Message Frame 2&lt;/font&gt;" style="rounded=1;whiteSpace=wrap;html=1;fillColor=#60a917;fontColor=#ffffff;strokeColor=#2D7600;" vertex="1" parent="1">
                    <mxGeometry x="280" y="120" width="136" height="40" as="geometry"/>
                </mxCell>
                <mxCell id="4" value="&lt;font style=&quot;font-size: 16px;&quot;&gt;MAVLink Message Frame 3&lt;br&gt;&lt;/font&gt;" style="rounded=1;whiteSpace=wrap;html=1;fillColor=#60a917;fontColor=#ffffff;strokeColor=#2D7600;" vertex="1" parent="1">
                    <mxGeometry x="460" y="120" width="340" height="40" as="geometry"/>
                </mxCell>
                <mxCell id="5" value="&lt;font style=&quot;font-size: 16px;&quot;&gt;MAVLink Message Frame 1&lt;/font&gt;" style="rounded=1;whiteSpace=wrap;html=1;fillColor=#60a917;fontColor=#ffffff;strokeColor=#2D7600;" vertex="1" parent="1">
                    <mxGeometry x="224" y="280" width="200" height="40" as="geometry"/>
                </mxCell>
                <mxCell id="6" value="" style="shape=flexArrow;endArrow=classic;html=1;fillColor=#fa6800;strokeColor=#C73500;" edge="1" parent="1">
                    <mxGeometry width="50" height="50" relative="1" as="geometry">
                        <mxPoint x="413.41" y="190" as="sourcePoint"/>
                        <mxPoint x="413.41" y="250" as="targetPoint"/>
                    </mxGeometry>
                </mxCell>
                <mxCell id="11" value="" style="rounded=1;whiteSpace=wrap;html=1;fontSize=16;fontColor=#000000;fillColor=#fa6800;strokeColor=#C73500;" vertex="1" parent="1">
                    <mxGeometry x="214" y="350" width="400" height="60" as="geometry"/>
                </mxCell>
                <mxCell id="12" value="&lt;font style=&quot;font-size: 16px;&quot;&gt;MAVLink Message Frame 2&lt;/font&gt;" style="rounded=1;whiteSpace=wrap;html=1;fillColor=#60a917;fontColor=#ffffff;strokeColor=#2D7600;" vertex="1" parent="1">
                    <mxGeometry x="224" y="360" width="136" height="40" as="geometry"/>
                </mxCell>
                <mxCell id="14" value="" style="rounded=1;whiteSpace=wrap;html=1;fontSize=16;fontColor=#000000;fillColor=#fa6800;strokeColor=#C73500;" vertex="1" parent="1">
                    <mxGeometry x="214" y="430" width="400" height="80" as="geometry"/>
                </mxCell>
                <mxCell id="15" value="&lt;font style=&quot;font-size: 16px;&quot;&gt;MAVLink Message Frame 3&lt;br&gt;&lt;/font&gt;" style="rounded=1;whiteSpace=wrap;html=1;fillColor=#60a917;fontColor=#ffffff;strokeColor=#2D7600;" vertex="1" parent="1">
                    <mxGeometry x="224" y="460" width="340" height="40" as="geometry"/>
                </mxCell>
                <mxCell id="16" value="&lt;font style=&quot;font-size: 16px;&quot;&gt;MAVLink Message Frame 1&lt;/font&gt;" style="rounded=1;whiteSpace=wrap;html=1;fillColor=#60a917;fontColor=#ffffff;strokeColor=#2D7600;" vertex="1" parent="1">
                    <mxGeometry x="830" y="120" width="200" height="40" as="geometry"/>
                </mxCell>
                <mxCell id="17" value="&lt;font style=&quot;font-size: 16px;&quot;&gt;MAVLink Message Frame 2&lt;/font&gt;" style="rounded=1;whiteSpace=wrap;html=1;fillColor=#60a917;fontColor=#ffffff;strokeColor=#2D7600;" vertex="1" parent="1">
                    <mxGeometry x="1070" y="120" width="136" height="40" as="geometry"/>
                </mxCell>
                <mxCell id="18" value="&lt;font style=&quot;font-size: 16px;&quot;&gt;MAVLink Message Frame 3&lt;br&gt;&lt;/font&gt;" style="rounded=1;whiteSpace=wrap;html=1;fillColor=#60a917;fontColor=#ffffff;strokeColor=#2D7600;" vertex="1" parent="1">
                    <mxGeometry x="1250" y="120" width="340" height="40" as="geometry"/>
                </mxCell>
                <mxCell id="19" value="" style="shape=flexArrow;endArrow=classic;html=1;fillColor=#fa6800;strokeColor=#C73500;" edge="1" parent="1">
                    <mxGeometry width="50" height="50" relative="1" as="geometry">
                        <mxPoint x="1160" y="210" as="sourcePoint"/>
                        <mxPoint x="1160" y="270" as="targetPoint"/>
                    </mxGeometry>
                </mxCell>
                <mxCell id="20" value="&lt;font style=&quot;font-size: 16px;&quot;&gt;MAVLink Message Frame 1&lt;/font&gt;" style="rounded=1;whiteSpace=wrap;html=1;fillColor=#60a917;fontColor=#ffffff;strokeColor=#2D7600;" vertex="1" parent="1">
                    <mxGeometry x="830" y="410" width="200" height="40" as="geometry"/>
                </mxCell>
                <mxCell id="21" value="&lt;font style=&quot;font-size: 16px;&quot;&gt;MAVLink Message Frame 2&lt;/font&gt;" style="rounded=1;whiteSpace=wrap;html=1;fillColor=#60a917;fontColor=#ffffff;strokeColor=#2D7600;" vertex="1" parent="1">
                    <mxGeometry x="1030" y="410" width="136" height="40" as="geometry"/>
                </mxCell>
                <mxCell id="22" value="&lt;font style=&quot;font-size: 16px;&quot;&gt;MAVLink Message Frame 3&lt;br&gt;&lt;/font&gt;" style="rounded=1;whiteSpace=wrap;html=1;fillColor=#60a917;fontColor=#ffffff;strokeColor=#2D7600;" vertex="1" parent="1">
                    <mxGeometry x="1166" y="410" width="340" height="40" as="geometry"/>
                </mxCell>
                <mxCell id="28" value="" style="endArrow=none;dashed=1;html=1;fontSize=16;fontColor=#FFFFFF;strokeWidth=3;fillColor=#fa6800;strokeColor=#C73500;" edge="1" parent="1">
                    <mxGeometry width="50" height="50" relative="1" as="geometry">
                        <mxPoint x="980" y="480" as="sourcePoint"/>
                        <mxPoint x="980" y="320" as="targetPoint"/>
                    </mxGeometry>
                </mxCell>
                <mxCell id="29" value="" style="endArrow=none;dashed=1;html=1;fontSize=16;fontColor=#FFFFFF;strokeWidth=3;fillColor=#fa6800;strokeColor=#C73500;" edge="1" parent="1">
                    <mxGeometry width="50" height="50" relative="1" as="geometry">
                        <mxPoint x="1130" y="480" as="sourcePoint"/>
                        <mxPoint x="1130" y="320" as="targetPoint"/>
                    </mxGeometry>
                </mxCell>
                <mxCell id="32" value="" style="shape=flexArrow;endArrow=classic;html=1;fillColor=#1ba1e2;strokeColor=#006EAF;" edge="1" parent="1">
                    <mxGeometry width="50" height="50" relative="1" as="geometry">
                        <mxPoint x="413.41" y="530" as="sourcePoint"/>
                        <mxPoint x="413.41" y="590" as="targetPoint"/>
                    </mxGeometry>
                </mxCell>
                <mxCell id="33" value="" style="shape=flexArrow;endArrow=classic;html=1;fillColor=#1ba1e2;strokeColor=#006EAF;" edge="1" parent="1">
                    <mxGeometry width="50" height="50" relative="1" as="geometry">
                        <mxPoint x="1159.9999999999995" y="530" as="sourcePoint"/>
                        <mxPoint x="1159.9999999999995" y="590" as="targetPoint"/>
                    </mxGeometry>
                </mxCell>
                <mxCell id="35" value="&lt;font color=&quot;#ffffff&quot;&gt;Framing&lt;/font&gt;" style="rounded=1;whiteSpace=wrap;html=1;fontSize=16;fontColor=#000000;fillColor=#fa6800;strokeColor=#C73500;" vertex="1" parent="1">
                    <mxGeometry x="450" y="200" width="120" height="40" as="geometry"/>
                </mxCell>
                <mxCell id="36" value="&lt;font color=&quot;#ffffff&quot;&gt;Framing&lt;/font&gt;" style="rounded=1;whiteSpace=wrap;html=1;fontSize=16;fontColor=#000000;fillColor=#fa6800;strokeColor=#C73500;" vertex="1" parent="1">
                    <mxGeometry x="1200" y="220" width="120" height="40" as="geometry"/>
                </mxCell>
                <mxCell id="37" value="&lt;font color=&quot;#ffffff&quot;&gt;Encryption&lt;/font&gt;" style="rounded=1;whiteSpace=wrap;html=1;fontSize=16;fontColor=#ffffff;fillColor=#1ba1e2;strokeColor=#006EAF;" vertex="1" parent="1">
                    <mxGeometry x="450" y="540" width="120" height="40" as="geometry"/>
                </mxCell>
                <mxCell id="38" value="&lt;font color=&quot;#ffffff&quot;&gt;Encryption&lt;/font&gt;" style="rounded=1;whiteSpace=wrap;html=1;fontSize=16;fontColor=#ffffff;fillColor=#1ba1e2;strokeColor=#006EAF;" vertex="1" parent="1">
                    <mxGeometry x="1200" y="550" width="120" height="40" as="geometry"/>
                </mxCell>
                <mxCell id="39" value="Plaintext Frame 1" style="text;html=1;strokeColor=none;fillColor=none;align=center;verticalAlign=middle;whiteSpace=wrap;rounded=0;fontSize=16;fontColor=#FFFFFF;" vertex="1" parent="1">
                    <mxGeometry x="400" y="285" width="236" height="30" as="geometry"/>
                </mxCell>
                <mxCell id="40" value="Plaintext Frame 2" style="text;html=1;strokeColor=none;fillColor=none;align=center;verticalAlign=middle;whiteSpace=wrap;rounded=0;fontSize=16;fontColor=#FFFFFF;" vertex="1" parent="1">
                    <mxGeometry x="400" y="365" width="236" height="30" as="geometry"/>
                </mxCell>
                <mxCell id="41" value="Plaintext Frame 3" style="text;html=1;strokeColor=none;fillColor=none;align=center;verticalAlign=middle;whiteSpace=wrap;rounded=0;fontSize=16;fontColor=#FFFFFF;" vertex="1" parent="1">
                    <mxGeometry x="400" y="430" width="236" height="30" as="geometry"/>
                </mxCell>
                <mxCell id="45" value="Plaintext Frame 1" style="text;html=1;strokeColor=none;fillColor=none;align=center;verticalAlign=middle;whiteSpace=wrap;rounded=0;fontSize=16;fontColor=#FFFFFF;" vertex="1" parent="1">
                    <mxGeometry x="787" y="380" width="236" height="30" as="geometry"/>
                </mxCell>
                <mxCell id="46" value="Plaintext Frame 2" style="text;html=1;strokeColor=none;fillColor=none;align=center;verticalAlign=middle;whiteSpace=wrap;rounded=0;fontSize=16;fontColor=#FFFFFF;" vertex="1" parent="1">
                    <mxGeometry x="937" y="380" width="236" height="30" as="geometry"/>
                </mxCell>
                <mxCell id="47" value="Plaintext Frame 3" style="text;html=1;strokeColor=none;fillColor=none;align=center;verticalAlign=middle;whiteSpace=wrap;rounded=0;fontSize=16;fontColor=#FFFFFF;" vertex="1" parent="1">
                    <mxGeometry x="1087" y="380" width="236" height="30" as="geometry"/>
                </mxCell>
                <mxCell id="49" value="Plaintext Frame 4" style="text;html=1;strokeColor=none;fillColor=none;align=center;verticalAlign=middle;whiteSpace=wrap;rounded=0;fontSize=16;fontColor=#FFFFFF;" vertex="1" parent="1">
                    <mxGeometry x="1237" y="380" width="236" height="30" as="geometry"/>
                </mxCell>
                <mxCell id="52" value="" style="endArrow=none;dashed=1;html=1;fontSize=16;fontColor=#FFFFFF;strokeWidth=3;fillColor=#fa6800;strokeColor=#C73500;" edge="1" parent="1">
                    <mxGeometry width="50" height="50" relative="1" as="geometry">
                        <mxPoint x="1280.0000000000002" y="474.9999999999999" as="sourcePoint"/>
                        <mxPoint x="1280.0000000000002" y="314.9999999999999" as="targetPoint"/>
                    </mxGeometry>
                </mxCell>
                <mxCell id="53" value="" style="endArrow=none;dashed=1;html=1;fontSize=16;fontColor=#FFFFFF;strokeWidth=3;fillColor=#fa6800;strokeColor=#C73500;" edge="1" parent="1">
                    <mxGeometry width="50" height="50" relative="1" as="geometry">
                        <mxPoint x="1430.0000000000002" y="474.9999999999999" as="sourcePoint"/>
                        <mxPoint x="1430.0000000000002" y="314.9999999999999" as="targetPoint"/>
                    </mxGeometry>
                </mxCell>
                <mxCell id="54" value="Ciphertext Frame 1" style="rounded=1;whiteSpace=wrap;html=1;fontSize=16;fontColor=#ffffff;fillColor=#1ba1e2;strokeColor=#006EAF;" vertex="1" parent="1">
                    <mxGeometry x="214" y="610" width="400" height="50" as="geometry"/>
                </mxCell>
                <mxCell id="55" value="Ciphertext Frame 2" style="rounded=1;whiteSpace=wrap;html=1;fontSize=16;fontColor=#ffffff;fillColor=#1ba1e2;strokeColor=#006EAF;" vertex="1" parent="1">
                    <mxGeometry x="214" y="680" width="400" height="50" as="geometry"/>
                </mxCell>
                <mxCell id="56" value="Ciphertext Frame 3" style="rounded=1;whiteSpace=wrap;html=1;fontSize=16;fontColor=#ffffff;fillColor=#1ba1e2;strokeColor=#006EAF;" vertex="1" parent="1">
                    <mxGeometry x="214" y="750" width="400" height="50" as="geometry"/>
                </mxCell>
                <mxCell id="60" value="&lt;font color=&quot;#ffffff&quot;&gt;Ciphertext Frame 1&lt;/font&gt;" style="rounded=1;whiteSpace=wrap;html=1;fontSize=16;fontColor=#ffffff;fillColor=#1ba1e2;strokeColor=#006EAF;" vertex="1" parent="1">
                    <mxGeometry x="830" y="660" width="150" height="50" as="geometry"/>
                </mxCell>
                <mxCell id="72" value="&lt;font color=&quot;#ffffff&quot;&gt;Ciphertext Frame 2&lt;/font&gt;" style="rounded=1;whiteSpace=wrap;html=1;fontSize=16;fontColor=#ffffff;fillColor=#1ba1e2;strokeColor=#006EAF;" vertex="1" parent="1">
                    <mxGeometry x="1010" y="660" width="150" height="50" as="geometry"/>
                </mxCell>
                <mxCell id="73" value="&lt;font color=&quot;#ffffff&quot;&gt;Ciphertext Frame 3&lt;/font&gt;" style="rounded=1;whiteSpace=wrap;html=1;fontSize=16;fontColor=#ffffff;fillColor=#1ba1e2;strokeColor=#006EAF;" vertex="1" parent="1">
                    <mxGeometry x="1190" y="660" width="150" height="50" as="geometry"/>
                </mxCell>
                <mxCell id="74" value="&lt;font color=&quot;#ffffff&quot;&gt;Ciphertext Frame 4&lt;/font&gt;" style="rounded=1;whiteSpace=wrap;html=1;fontSize=16;fontColor=#ffffff;fillColor=#1ba1e2;strokeColor=#006EAF;" vertex="1" parent="1">
                    <mxGeometry x="1370" y="660" width="150" height="50" as="geometry"/>
                </mxCell>
            </root>
        </mxGraphModel>
    </diagram>
</mxfile>